{
    "asset" : {
        "generator" : "Khronos glTF Blender I/O v1.3.48",
        "version" : "2.0"
    },
    "scene" : 0,
    "scenes" : [
        {
            "name" : "Scene",
            "nodes" : [
                0
            ]
        }
    ],
    "nodes" : [
        {
            "mesh" : 0,
            "name" : "Cilindro",
            "translation" : [
                0,
                1.8098175525665283,
                0
            ]
        }
    ],
    "materials" : [
        {
            "doubleSided" : true,
            "name" : "OsoPiel",
            "pbrMetallicRoughness" : {}
        },
        {
            "doubleSided" : true,
            "name" : "Ojos",
            "pbrMetallicRoughness" : {}
        },
        {
            "doubleSided" : true,
            "name" : "Nariz",
            "pbrMetallicRoughness" : {}
        },
        {
            "doubleSided" : true,
            "name" : "OjosOso",
            "pbrMetallicRoughness" : {}
        }
    ],
    "meshes" : [
        {
            "name" : "Cilindro.001",
            "primitives" : [
                {
                    "attributes" : {
                        "POSITION" : 0,
                        "NORMAL" : 1
                    },
                    "indices" : 2,
                    "material" : 0
                },
                {
                    "attributes" : {
                        "POSITION" : 3,
                        "NORMAL" : 4
                    },
                    "indices" : 5,
                    "material" : 1
                },
                {
                    "attributes" : {
                        "POSITION" : 6,
                        "NORMAL" : 7
                    },
                    "indices" : 8,
                    "material" : 2
                },
                {
                    "attributes" : {
                        "POSITION" : 9,
                        "NORMAL" : 10
                    },
                    "indices" : 11,
                    "material" : 3
                }
            ]
        }
    ],
    "accessors" : [
        {
            "bufferView" : 0,
            "componentType" : 5126,
            "count" : 11314,
            "max" : [
                1.673093318939209,
                4.271666526794434,
                1.5040279626846313
            ],
            "min" : [
                -1.6620721817016602,
                -2.1192471981048584,
                -1.297144889831543
            ],
            "type" : "VEC3"
        },
        {
            "bufferView" : 1,
            "componentType" : 5126,
            "count" : 11314,
            "type" : "VEC3"
        },
        {
            "bufferView" : 2,
            "componentType" : 5123,
            "count" : 67452,
            "type" : "SCALAR"
        },
        {
            "bufferView" : 3,
            "componentType" : 5126,
            "count" : 3972,
            "max" : [
                1.0166250467300415,
                3.1150710582733154,
                0.8993809223175049
            ],
            "min" : [
                -1.0811967849731445,
                2.767831325531006,
                0.5551249384880066
            ],
            "type" : "VEC3"
        },
        {
            "bufferView" : 4,
            "componentType" : 5126,
            "count" : 3972,
            "type" : "VEC3"
        },
        {
            "bufferView" : 5,
            "componentType" : 5123,
            "count" : 23808,
            "type" : "SCALAR"
        },
        {
            "bufferView" : 6,
            "componentType" : 5126,
            "count" : 398,
            "max" : [
                0.2802816927433014,
                2.6249306201934814,
                1.4236953258514404
            ],
            "min" : [
                -0.2804895341396332,
                2.060736656188965,
                0.5392449498176575
            ],
            "type" : "VEC3"
        },
        {
            "bufferView" : 7,
            "componentType" : 5126,
            "count" : 398,
            "type" : "VEC3"
        },
        {
            "bufferView" : 8,
            "componentType" : 5123,
            "count" : 2376,
            "type" : "SCALAR"
        },
        {
            "bufferView" : 9,
            "componentType" : 5126,
            "count" : 3972,
            "max" : [
                0.9196418523788452,
                3.0098001956939697,
                0.9278004765510559
            ],
            "min" : [
                -0.9750875234603882,
                2.883474588394165,
                0.8025600910186768
            ],
            "type" : "VEC3"
        },
        {
            "bufferView" : 10,
            "componentType" : 5126,
            "count" : 3972,
            "type" : "VEC3"
        },
        {
            "bufferView" : 11,
            "componentType" : 5123,
            "count" : 23808,
            "type" : "SCALAR"
        }
    ],
    "bufferViews" : [
        {
            "buffer" : 0,
            "byteLength" : 135768,
            "byteOffset" : 0
        },
        {
            "buffer" : 0,
            "byteLength" : 135768,
            "byteOffset" : 135768
        },
        {
            "buffer" : 0,
            "byteLength" : 134904,
            "byteOffset" : 271536
        },
        {
            "buffer" : 0,
            "byteLength" : 47664,
            "byteOffset" : 406440
        },
        {
            "buffer" : 0,
            "byteLength" : 47664,
            "byteOffset" : 454104
        },
        {
            "buffer" : 0,
            "byteLength" : 47616,
            "byteOffset" : 501768
        },
        {
            "buffer" : 0,
            "byteLength" : 4776,
            "byteOffset" : 549384
        },
        {
            "buffer" : 0,
            "byteLength" : 4776,
            "byteOffset" : 554160
        },
        {
            "buffer" : 0,
            "byteLength" : 4752,
            "byteOffset" : 558936
        },
        {
            "buffer" : 0,
            "byteLength" : 47664,
            "byteOffset" : 563688
        },
        {
            "buffer" : 0,
            "byteLength" : 47664,
            "byteOffset" : 611352
        },
        {
            "buffer" : 0,
            "byteLength" : 47616,
            "byteOffset" : 659016
        }
    ],
    "buffers" : [
        {
            "byteLength" : 706632,
            "uri" : "data:application/octet-stream;base64,"
        }
    ]
}
