{
    "asset" : {
        "generator" : "Khronos glTF Blender I/O v1.3.48",
        "version" : "2.0"
    },
    "scene" : 0,
    "scenes" : [
        {
            "name" : "Scene",
            "nodes" : [
                0
            ]
        }
    ],
    "nodes" : [
        {
            "mesh" : 0,
            "name" : "Cylinder",
            "rotation" : [
                -0.0052964212372899055,
                0.005296420305967331,
                -0.7070868611335754,
                0.7070870399475098
            ],
            "scale" : [
                -0.057582102715969086,
                20.39152717590332,
                -0.057582102715969086
            ],
            "translation" : [
                -19.354639053344727,
                0,
                -0.36444807052612305
            ]
        }
    ],
    "materials" : [
        {
            "doubleSided" : true,
            "name" : "Material",
            "pbrMetallicRoughness" : {}
        }
    ],
    "meshes" : [
        {
            "name" : "Cylinder",
            "primitives" : [
                {
                    "attributes" : {
                        "POSITION" : 0,
                        "NORMAL" : 1
                    },
                    "indices" : 2,
                    "material" : 0
                }
            ]
        }
    ],
    "accessors" : [
        {
            "bufferView" : 0,
            "componentType" : 5126,
            "count" : 2080,
            "max" : [
                12.832891464233398,
                1.1019070148468018,
                1.1112252473831177
            ],
            "min" : [
                -9.65462875366211,
                0.7871143817901611,
                -2.5098330974578857
            ],
            "type" : "VEC3"
        },
        {
            "bufferView" : 1,
            "componentType" : 5126,
            "count" : 2080,
            "type" : "VEC3"
        },
        {
            "bufferView" : 2,
            "componentType" : 5123,
            "count" : 12468,
            "type" : "SCALAR"
        }
    ],
    "bufferViews" : [
        {
            "buffer" : 0,
            "byteLength" : 24960,
            "byteOffset" : 0
        },
        {
            "buffer" : 0,
            "byteLength" : 24960,
            "byteOffset" : 24960
        },
        {
            "buffer" : 0,
            "byteLength" : 24936,
            "byteOffset" : 49920
        }
    ],
    "buffers" : [
        {
            "byteLength" : 74856,
            "uri" : "data:application/octet-stream;base64,"
        }
    ]
}
