{
    "asset" : {
        "generator" : "Khronos glTF Blender I/O v1.3.48",
        "version" : "2.0"
    },
    "scene" : 0,
    "scenes" : [
        {
            "name" : "Scene",
            "nodes" : [
                1
            ]
        }
    ],
    "nodes" : [
        {
            "mesh" : 0,
            "name" : "\u0426\u0438\u043b\u0438\u043d\u0434\u0440.001",
            "scale" : [
                0.537743091583252,
                0.9328742623329163,
                0.47936543822288513
            ],
            "translation" : [
                0,
                10.323173522949219,
                0
            ]
        },
        {
            "children" : [
                0
            ],
            "mesh" : 1,
            "name" : "\u0426\u0438\u043b\u0438\u043d\u0434\u0440",
            "rotation" : [
                0.5607670545578003,
                -0.27826619148254395,
                -0.2269851565361023,
                0.7460469007492065
            ],
            "scale" : [
                1,
                1,
                1.1217811107635498
            ],
            "translation" : [
                9.760472297668457,
                0,
                0
            ]
        }
    ],
    "materials" : [
        {
            "doubleSided" : true,
            "name" : "Gold",
            "pbrMetallicRoughness" : {}
        },
        {
            "doubleSided" : true,
            "name" : "\u041c\u0430\u0442\u0435\u0440\u0438\u0430\u043b.007",
            "pbrMetallicRoughness" : {}
        },
        {
            "doubleSided" : true,
            "name" : "Eraser",
            "pbrMetallicRoughness" : {}
        },
        {
            "doubleSided" : true,
            "name" : "pencil paint",
            "pbrMetallicRoughness" : {}
        },
        {
            "doubleSided" : true,
            "name" : "\u041c\u0430\u0442\u0435\u0440\u0438\u0430\u043b.003",
            "pbrMetallicRoughness" : {}
        },
        {
            "doubleSided" : true,
            "name" : "\u041c\u0430\u0442\u0435\u0440\u0438\u0430\u043b.004",
            "pbrMetallicRoughness" : {}
        },
        {
            "doubleSided" : true,
            "name" : "\u041c\u0430\u0442\u0435\u0440\u0438\u0430\u043b.Carbon",
            "pbrMetallicRoughness" : {}
        }
    ],
    "meshes" : [
        {
            "name" : "\u0426\u0438\u043b\u0438\u043d\u0434\u0440",
            "primitives" : [
                {
                    "attributes" : {
                        "POSITION" : 0,
                        "NORMAL" : 1
                    },
                    "indices" : 2,
                    "material" : 0
                },
                {
                    "attributes" : {
                        "POSITION" : 3,
                        "NORMAL" : 4
                    },
                    "indices" : 5,
                    "material" : 1
                },
                {
                    "attributes" : {
                        "POSITION" : 6,
                        "NORMAL" : 7
                    },
                    "indices" : 8,
                    "material" : 2
                }
            ]
        },
        {
            "name" : "\u0426\u0438\u043b\u0438\u043d\u0434\u0440.001",
            "primitives" : [
                {
                    "attributes" : {
                        "POSITION" : 9,
                        "NORMAL" : 10,
                        "TEXCOORD_0" : 11
                    },
                    "indices" : 12,
                    "material" : 3
                },
                {
                    "attributes" : {
                        "POSITION" : 13,
                        "NORMAL" : 14,
                        "TEXCOORD_0" : 15
                    },
                    "indices" : 16,
                    "material" : 4
                },
                {
                    "attributes" : {
                        "POSITION" : 17,
                        "NORMAL" : 18,
                        "TEXCOORD_0" : 19
                    },
                    "indices" : 5,
                    "material" : 5
                },
                {
                    "attributes" : {
                        "POSITION" : 20,
                        "NORMAL" : 21,
                        "TEXCOORD_0" : 22
                    },
                    "indices" : 23,
                    "material" : 6
                }
            ]
        }
    ],
    "accessors" : [
        {
            "bufferView" : 0,
            "componentType" : 5126,
            "count" : 1644,
            "max" : [
                1.1414159536361694,
                0.8633023500442505,
                1.168949007987976
            ],
            "min" : [
                -1.148371934890747,
                -1.0883020162582397,
                -1.1647148132324219
            ],
            "type" : "VEC3"
        },
        {
            "bufferView" : 1,
            "componentType" : 5126,
            "count" : 1644,
            "type" : "VEC3"
        },
        {
            "bufferView" : 2,
            "componentType" : 5123,
            "count" : 2478,
            "type" : "SCALAR"
        },
        {
            "bufferView" : 3,
            "componentType" : 5126,
            "count" : 48,
            "max" : [
                1.0659196376800537,
                -0.12385877966880798,
                1.0659198760986328
            ],
            "min" : [
                -1.0659195184707642,
                -0.5534573197364807,
                -1.0659196376800537
            ],
            "type" : "VEC3"
        },
        {
            "bufferView" : 4,
            "componentType" : 5126,
            "count" : 48,
            "type" : "VEC3"
        },
        {
            "bufferView" : 5,
            "componentType" : 5123,
            "count" : 72,
            "type" : "SCALAR"
        },
        {
            "bufferView" : 6,
            "componentType" : 5126,
            "count" : 156,
            "max" : [
                1.0659196376800537,
                1.6479262113571167,
                1.0659198760986328
            ],
            "min" : [
                -1.0659195184707642,
                0.7538495659828186,
                -1.0659196376800537
            ],
            "type" : "VEC3"
        },
        {
            "bufferView" : 7,
            "componentType" : 5126,
            "count" : 156,
            "type" : "VEC3"
        },
        {
            "bufferView" : 8,
            "componentType" : 5123,
            "count" : 246,
            "type" : "SCALAR"
        },
        {
            "bufferView" : 9,
            "componentType" : 5126,
            "count" : 226,
            "max" : [
                0.5,
                9.776948928833008,
                0.47316718101501465
            ],
            "min" : [
                -0.5,
                -5.075615406036377,
                -0.47316718101501465
            ],
            "type" : "VEC3"
        },
        {
            "bufferView" : 10,
            "componentType" : 5126,
            "count" : 226,
            "type" : "VEC3"
        },
        {
            "bufferView" : 11,
            "componentType" : 5126,
            "count" : 226,
            "type" : "VEC2"
        },
        {
            "bufferView" : 12,
            "componentType" : 5123,
            "count" : 354,
            "type" : "SCALAR"
        },
        {
            "bufferView" : 13,
            "componentType" : 5126,
            "count" : 66,
            "max" : [
                0.5,
                -4.907436370849609,
                0.47316718101501465
            ],
            "min" : [
                -0.5,
                -6.776386260986328,
                -0.47316718101501465
            ],
            "type" : "VEC3"
        },
        {
            "bufferView" : 14,
            "componentType" : 5126,
            "count" : 66,
            "type" : "VEC3"
        },
        {
            "bufferView" : 15,
            "componentType" : 5126,
            "count" : 66,
            "type" : "VEC2"
        },
        {
            "bufferView" : 16,
            "componentType" : 5123,
            "count" : 90,
            "type" : "SCALAR"
        },
        {
            "bufferView" : 17,
            "componentType" : 5126,
            "count" : 48,
            "max" : [
                0.5,
                -4.820000648498535,
                0.47316718101501465
            ],
            "min" : [
                -0.5,
                -5.163051128387451,
                -0.47316718101501465
            ],
            "type" : "VEC3"
        },
        {
            "bufferView" : 18,
            "componentType" : 5126,
            "count" : 48,
            "type" : "VEC3"
        },
        {
            "bufferView" : 19,
            "componentType" : 5126,
            "count" : 48,
            "type" : "VEC2"
        },
        {
            "bufferView" : 20,
            "componentType" : 5126,
            "count" : 30,
            "max" : [
                0.23632733523845673,
                -6.520771026611328,
                0.23252351582050323
            ],
            "min" : [
                -0.23632733523845673,
                -7.692252159118652,
                -0.23252351582050323
            ],
            "type" : "VEC3"
        },
        {
            "bufferView" : 21,
            "componentType" : 5126,
            "count" : 30,
            "type" : "VEC3"
        },
        {
            "bufferView" : 22,
            "componentType" : 5126,
            "count" : 30,
            "type" : "VEC2"
        },
        {
            "bufferView" : 23,
            "componentType" : 5123,
            "count" : 48,
            "type" : "SCALAR"
        }
    ],
    "bufferViews" : [
        {
            "buffer" : 0,
            "byteLength" : 19728,
            "byteOffset" : 0
        },
        {
            "buffer" : 0,
            "byteLength" : 19728,
            "byteOffset" : 19728
        },
        {
            "buffer" : 0,
            "byteLength" : 4956,
            "byteOffset" : 39456
        },
        {
            "buffer" : 0,
            "byteLength" : 576,
            "byteOffset" : 44412
        },
        {
            "buffer" : 0,
            "byteLength" : 576,
            "byteOffset" : 44988
        },
        {
            "buffer" : 0,
            "byteLength" : 144,
            "byteOffset" : 45564
        },
        {
            "buffer" : 0,
            "byteLength" : 1872,
            "byteOffset" : 45708
        },
        {
            "buffer" : 0,
            "byteLength" : 1872,
            "byteOffset" : 47580
        },
        {
            "buffer" : 0,
            "byteLength" : 492,
            "byteOffset" : 49452
        },
        {
            "buffer" : 0,
            "byteLength" : 2712,
            "byteOffset" : 49944
        },
        {
            "buffer" : 0,
            "byteLength" : 2712,
            "byteOffset" : 52656
        },
        {
            "buffer" : 0,
            "byteLength" : 1808,
            "byteOffset" : 55368
        },
        {
            "buffer" : 0,
            "byteLength" : 708,
            "byteOffset" : 57176
        },
        {
            "buffer" : 0,
            "byteLength" : 792,
            "byteOffset" : 57884
        },
        {
            "buffer" : 0,
            "byteLength" : 792,
            "byteOffset" : 58676
        },
        {
            "buffer" : 0,
            "byteLength" : 528,
            "byteOffset" : 59468
        },
        {
            "buffer" : 0,
            "byteLength" : 180,
            "byteOffset" : 59996
        },
        {
            "buffer" : 0,
            "byteLength" : 576,
            "byteOffset" : 60176
        },
        {
            "buffer" : 0,
            "byteLength" : 576,
            "byteOffset" : 60752
        },
        {
            "buffer" : 0,
            "byteLength" : 384,
            "byteOffset" : 61328
        },
        {
            "buffer" : 0,
            "byteLength" : 360,
            "byteOffset" : 61712
        },
        {
            "buffer" : 0,
            "byteLength" : 360,
            "byteOffset" : 62072
        },
        {
            "buffer" : 0,
            "byteLength" : 240,
            "byteOffset" : 62432
        },
        {
            "buffer" : 0,
            "byteLength" : 96,
            "byteOffset" : 62672
        }
    ],
    "buffers" : [
        {
            "byteLength" : 62768,
            "uri" : "data:application/octet-stream;base64,"
        }
    ]
}
